<svg width="30" height="33" viewBox="0 0 30 33" fill="none" xmlns="http://www.w3.org/2000/svg">
<path d="M16.6569 16.6409L29.6563 3.00585C30.114 2.5258 30.114 1.7475 29.6563 1.26751C29.1986 0.78752 28.4566 0.787458 27.999 1.26751L14.9995 14.9025L2.00009 1.26751C1.54241 0.787458 0.800384 0.787458 0.342768 1.26751C-0.114848 1.74756 -0.114907 2.52587 0.342768 3.00585L13.3422 16.6408L0.342768 30.2758C-0.114907 30.7558 -0.114907 31.5341 0.342768 32.0141C0.571576 32.2541 0.871517 32.3741 1.17146 32.3741C1.4714 32.3741 1.77128 32.2541 2.00015 32.0141L14.9995 18.3792L27.9989 32.0141C28.2277 32.2541 28.5277 32.3741 28.8276 32.3741C29.1275 32.3741 29.4274 32.2541 29.6563 32.0141C30.114 31.5341 30.114 30.7558 29.6563 30.2758L16.6569 16.6409Z" fill="#4F4F4F"/>
</svg>
