<svg width="40" height="40" viewBox="0 0 40 40" fill="none" xmlns="http://www.w3.org/2000/svg">
<path d="M38.3267 18H36V13.8213C35.9993 13.3385 35.8072 12.8756 35.4658 12.5342C35.1244 12.1928 34.6615 12.0007 34.1787 12H33.3333V0H6.66667V1.33333H4.66667V2.66667H2.66667V7.33333H1.82133C1.3385 7.33404 0.875649 7.52615 0.534235 7.86757C0.192822 8.20898 0.000705379 8.67183 0 9.15467L0 38.2793H0.004C0.000666667 38.6547 0.117333 39.022 0.352 39.3293C0.510977 39.5386 0.716387 39.7082 0.952046 39.8245C1.1877 39.9409 1.44717 40.001 1.71 40H31.5493C32.3207 40 32.9993 39.48 33.182 38.7913L40 20.0993V19.9813C40 18.8333 39.296 18 38.3267 18ZM34.1787 13.3333C34.448 13.3333 34.6667 13.552 34.6667 13.8213V18H33.3333V13.3333H34.1787ZM32 1.33333V18H8.48733C8.33531 18.0017 8.1842 18.0236 8.038 18.0653C8.026 18.0687 8.012 18.0673 8 18.0707V1.33333H32ZM6.66667 2.66667V19.7233L6.62467 19.8387L6 21.5507V2.66667H6.66667ZM4 4H4.66667V25.2067L4 27.034V4ZM1.33333 9.15467C1.33333 8.88533 1.55267 8.66667 1.82133 8.66667H2.66667V30.6287L1.33333 34.2653V9.15467ZM31.912 38.3893C31.8906 38.4691 31.8434 38.5395 31.7778 38.5896C31.7122 38.6398 31.6319 38.6669 31.5493 38.6667H1.71C1.65208 38.6672 1.59485 38.6541 1.54295 38.6284C1.49105 38.6027 1.44596 38.5651 1.41133 38.5187C1.36933 38.464 1.30467 38.348 1.32933 38.2467L2.66667 34.58V34.5807L4.66667 29.0973L6.66667 23.614V23.616L7.95467 20.082L8 19.9587L8.10667 19.666L8.124 19.6113C8.14576 19.5316 8.19309 19.4612 8.25873 19.411C8.32437 19.3608 8.40468 19.3335 8.48733 19.3333H38.3267C38.5793 19.3333 38.6447 19.6973 38.6607 19.8793L31.912 38.3893Z" fill="#E5E5E5"/>
</svg>
