<svg width="18" height="19" viewBox="0 0 18 19" fill="none" xmlns="http://www.w3.org/2000/svg">
<g clip-path="url(#clip0_1_755)">
<path d="M18.0001 3.93125C17.3251 4.2125 16.6501 4.4375 15.8626 4.49375C16.6501 4.04375 17.2126 3.3125 17.4938 2.46875C16.7626 2.91875 15.9751 3.2 15.1313 3.36875C14.4563 2.6375 13.5001 2.1875 12.4876 2.1875C10.4626 2.1875 8.7751 3.81875 8.7751 5.9C8.7751 6.18125 8.83135 6.4625 8.8876 6.74375C5.79385 6.575 3.09385 5.1125 1.2376 2.8625C0.900098 3.425 0.731348 4.04375 0.731348 4.71875C0.731348 6.0125 1.40635 7.1375 2.3626 7.8125C1.74385 7.8125 1.18135 7.64375 0.675098 7.3625V7.41875C0.675098 9.21875 1.96885 10.6813 3.65635 11.0188C3.31885 11.075 3.0376 11.1312 2.7001 11.1312C2.4751 11.1312 2.2501 11.1312 2.0251 11.075C2.4751 12.5375 3.88135 13.6062 5.45635 13.6625C4.21885 14.675 2.5876 15.2375 0.843848 15.2375C0.562598 15.2375 0.225098 15.2375 -0.0561523 15.1813C1.63135 16.1938 3.6001 16.8125 5.68135 16.8125C12.4876 16.8125 16.2001 11.1875 16.2001 6.29375V5.84375C16.8751 5.28125 17.4938 4.6625 18.0001 3.93125V3.93125Z" fill="#E5E5E5"/>
</g>
<defs>
<clipPath id="clip0_1_755">
<rect width="18" height="18" fill="white" transform="translate(0 0.5)"/>
</clipPath>
</defs>
</svg>
